PathFileType	4	(X/Y/Z)	S:\OneDrive - The University of Tokyo\ìåëÂéˆã∆\ÉoÉCÉÅÉJ\ë™íË\hirabayashi_2\Trimmed\Trimmed_BarR20kg1.trc
DataRate	CameraRate	NumFrames	NumMarkers	Units	OrigDataRate	OrigDataStartFrame	OrigNumFrames
200.00	200.00	       26	12	mm	200.00	40	       313
Frame#	Time	BarR0			BarR50			BarR100			BarR130			BarR180			BarR230			BarL0			BarL50			BarL100			BarL130			BarL180			BarL230			
		X1	Y1	Z1	X2	Y2	Z2	X3	Y3	Z3	X4	Y4	Z4	X5	Y5	Z5	X6	Y6	Z6	X7	Y7	Z7	X8	Y8	Z8	X9	Y9	Z9	X10	Y10	Z10	X11	Y11	Z11	X12	Y12	Z12	

40	0.195	-576.34601	2754.90015	1664.22375	-603.88489	2305.65259	1657.82446	-637.88843	1851.84827	1654.50183	-660.48932	1349.62439	1654.41760	-689.77063	902.97034	1658.46533	-713.76520	455.07349	1664.11499	-1113.51318	2808.15283	1664.65125	-1140.78271	2356.50342	1667.93835	-1171.26514	1906.01758	1668.92346	-1198.99927	1404.28845	1669.26160	-1226.82397	952.64008	1668.40613	-1244.70679	506.45499	1667.64282	
41	0.200	-576.34680	2754.92871	1664.22925	-603.89435	2305.62622	1657.82654	-637.88593	1851.81360	1654.49744	-660.49091	1349.60083	1654.43616	-689.76715	902.97156	1658.47119	-713.77454	455.04178	1664.12256	-1113.49756	2808.15210	1664.67590	-1140.76208	2356.52710	1667.94885	-1171.25452	1906.04150	1668.91870	-1198.98132	1404.29333	1669.26074	-1226.83557	952.63757	1668.42297	-1244.70032	506.45361	1667.65686	
42	0.205	-576.33917	2754.90723	1664.22839	-603.87427	2305.64502	1657.83618	-637.91931	1851.81641	1654.50415	-660.49213	1349.59875	1654.43054	-689.77216	902.99432	1658.47412	-713.78723	455.07596	1664.11731	-1113.49573	2808.15674	1664.65918	-1140.76831	2356.51465	1667.95642	-1171.27527	1906.04492	1668.92114	-1198.99768	1404.29236	1669.26343	-1226.84216	952.62897	1668.41565	-1244.69775	506.46439	1667.64880	
43	0.210	-576.33484	2754.90454	1664.22095	-603.87341	2305.64453	1657.80566	-637.89825	1851.82117	1654.49951	-660.48907	1349.61926	1654.43469	-689.77435	902.97467	1658.46216	-713.75922	455.04553	1664.12305	-1113.51624	2808.15210	1664.65369	-1140.76978	2356.53125	1667.93860	-1171.27588	1906.02710	1668.91052	-1198.98718	1404.29272	1669.25671	-1226.82690	952.63733	1668.41931	-1244.68994	506.43982	1667.65698	
44	0.215	-576.34149	2754.90259	1664.23022	-603.89325	2305.59717	1657.81311	-637.92474	1851.81177	1654.50391	-660.48145	1349.60352	1654.42017	-689.76678	902.97931	1658.46899	-713.77460	455.06076	1664.11389	-1113.47949	2808.15894	1664.65662	-1140.77405	2356.50122	1667.93689	-1171.25964	1906.05371	1668.91248	-1198.99731	1404.27588	1669.24316	-1226.82703	952.61914	1668.40393	-1244.69324	506.44800	1667.64868	
45	0.220	-576.35095	2754.88599	1664.22925	-603.87183	2305.63330	1657.82739	-637.87415	1851.80750	1654.50415	-660.49719	1349.58020	1654.43652	-689.76715	902.96112	1658.46912	-713.77509	455.05753	1664.11316	-1113.48914	2808.14648	1664.64978	-1140.77441	2356.51147	1667.94116	-1171.27454	1906.02771	1668.91663	-1198.99731	1404.27173	1669.25635	-1226.82898	952.63867	1668.41846	-1244.71399	506.46716	1667.64807	
46	0.225	-576.35144	2754.91455	1664.23120	-603.87646	2305.62891	1657.83826	-637.87354	1851.81897	1654.50037	-660.48108	1349.59802	1654.43152	-689.76929	902.96478	1658.45996	-713.76624	455.06186	1664.12378	-1113.48633	2808.16479	1664.67188	-1140.76318	2356.52563	1667.95923	-1171.28357	1906.04358	1668.92383	-1198.99475	1404.30603	1669.25012	-1226.29919	952.71899	1668.39783	-1244.68567	506.42899	1667.65771	
47	0.230	-576.34448	2754.90918	1664.22620	-603.88226	2305.61328	1657.80505	-637.89880	1851.83081	1654.49182	-660.49011	1349.61450	1654.42432	-689.76239	902.99469	1658.46814	-713.76648	455.07834	1664.11853	-1113.50684	2808.15210	1664.66150	-1140.77551	2356.49414	1667.95068	-1171.28101	1906.04492	1668.92163	-1199.00732	1404.29504	1669.26831	-1226.81763	952.63397	1668.41541	-1244.70923	506.46310	1667.64355	
48	0.235	-576.35980	2754.90625	1664.23450	-603.89362	2305.64502	1657.81360	-637.89734	1851.80054	1654.49316	-660.48889	1349.60815	1654.42249	-689.76221	902.97858	1658.45215	-713.77649	455.07980	1664.12219	-1113.50720	2808.12573	1664.66541	-1140.77087	2356.51685	1667.94397	-1171.25439	1906.03491	1668.91809	-1198.98999	1404.29956	1669.25879	-1226.82568	952.63794	1668.40100	-1244.71106	506.47012	1667.65906	
49	0.240	-576.35529	2754.89355	1664.23132	-603.89563	2305.66260	1657.84656	-637.89191	1851.83887	1654.48718	-660.48669	1349.59546	1654.42688	-689.76495	902.99042	1658.47693	-713.76349	455.09595	1664.11938	-1113.50684	2808.15552	1664.66626	-1140.78540	2356.48804	1667.94995	-1171.25891	1906.04370	1668.92029	-1199.00647	1404.28210	1669.26123	-1226.83557	952.63281	1668.40039	-1244.69653	506.46103	1667.65308	
50	0.245	-576.34906	2754.92334	1664.20947	-603.90137	2305.65063	1657.80225	-637.87085	1851.81335	1654.50085	-660.48712	1349.60999	1654.43286	-689.77789	902.97858	1658.45911	-713.75336	455.05515	1664.12048	-1113.50513	2808.14380	1664.67090	-1140.78174	2356.50171	1667.93494	-1171.28638	1906.05103	1668.91931	-1198.98657	1404.29407	1669.24341	-1226.81323	952.65265	1668.41809	-1244.70715	506.43866	1667.65820	
51	0.250	-576.35645	2754.91504	1664.23840	-603.89166	2305.62378	1657.82129	-637.88629	1851.82153	1654.49756	-660.49164	1349.59399	1654.42615	-689.76385	902.97412	1658.46729	-713.77301	455.06152	1664.12122	-1113.49573	2808.16040	1664.64783	-1140.77563	2356.52783	1667.94763	-1171.27856	1906.03394	1668.91614	-1198.99512	1404.29260	1669.25464	-1226.83435	952.64172	1668.40881	-1244.71375	506.47974	1667.65552	
52	0.255	-576.34650	2754.91333	1664.22388	-603.89026	2305.63892	1657.82593	-637.89484	1851.81677	1654.47913	-660.46027	1349.59558	1654.41907	-689.76794	902.97394	1658.46277	-713.76538	455.06268	1664.12183	-1113.48767	2808.15503	1664.66272	-1140.77100	2356.49634	1667.95471	-1171.25659	1906.02527	1668.91858	-1198.99866	1404.27576	1669.24744	-1226.60718	952.68188	1668.37488	-1244.70813	506.44965	1667.65247	
53	0.260	-576.33710	2754.89453	1664.23633	-603.91766	2305.64429	1657.81665	-637.90863	1851.81628	1654.50391	-660.49951	1349.62329	1654.42029	-689.76086	902.99286	1658.47693	-713.75751	455.08551	1664.12036	-1113.50769	2808.14355	1664.66150	-1140.75879	2356.51440	1667.95251	-1171.27954	1906.03967	1668.93262	-1198.99829	1404.27588	1669.25366	-1226.83118	952.62567	1668.40869	-1244.70996	506.46518	1667.64734	
54	0.265	-576.34528	2754.88672	1664.22644	-603.91016	2305.62573	1657.82483	-637.88525	1851.82776	1654.49744	-660.47021	1349.60095	1654.41406	-689.76746	902.98157	1658.46045	-713.76495	455.06638	1664.11597	-1113.47290	2808.13916	1664.66907	-1140.75671	2356.50830	1667.95532	-1171.26013	1906.03455	1668.92468	-1198.98511	1404.30701	1669.27698	-1226.81738	952.63818	1668.41724	-1244.69739	506.44238	1667.65601	
55	0.270	-576.34729	2754.90845	1664.23206	-603.90173	2305.61548	1657.81519	-637.90033	1851.80505	1654.49487	-660.48755	1349.60291	1654.42114	-689.77252	902.97284	1658.45862	-713.77814	455.09210	1664.12244	-1113.49341	2808.16870	1664.66235	-1140.77527	2356.50073	1667.93884	-1171.28198	1906.03149	1668.91736	-1198.99292	1404.29041	1669.25012	-1226.83105	952.64160	1668.41309	-1244.67566	506.44034	1667.66040	
56	0.275	-576.35071	2754.89429	1664.21631	-603.90594	2305.62402	1657.82214	-637.89136	1851.81055	1654.49524	-660.46191	1349.61157	1654.43408	-689.75739	902.99658	1658.47180	-713.76654	455.06165	1664.11804	-1113.47852	2808.12231	1664.66528	-1140.76978	2356.52197	1667.94556	-1171.26990	1906.02563	1668.91833	-1198.99829	1404.26538	1669.25256	-1226.82935	952.63855	1668.41638	-1244.69690	506.44720	1667.65186	
57	0.280	-576.33026	2754.89868	1664.23279	-603.89032	2305.60889	1657.82703	-637.91675	1851.82434	1654.50916	-660.51160	1349.61145	1654.42346	-689.78497	902.98254	1658.46655	-713.75940	455.05179	1664.11279	-1113.52051	2808.14648	1664.66150	-1140.76538	2356.49756	1667.94385	-1171.26917	1906.03223	1668.92224	-1198.99207	1404.27332	1669.26453	-1226.29919	952.72308	1668.39478	-1244.70959	506.45236	1667.65283	
58	0.285	-576.34515	2754.90454	1664.22607	-603.88770	2305.61987	1657.84253	-637.88702	1851.81775	1654.49011	-660.47827	1349.61865	1654.42834	-689.77686	902.97223	1658.46143	-713.77240	455.08783	1664.11047	-1113.47595	2808.15674	1664.65698	-1140.76489	2356.50171	1667.95374	-1171.26135	1906.04517	1668.90820	-1199.00195	1404.29419	1669.26917	-1226.81238	952.63745	1668.40393	-1244.70361	506.45605	1667.65576	
59	0.290	-576.33691	2754.91138	1664.23535	-603.89362	2305.62451	1657.83386	-637.92792	1851.81726	1654.50391	-660.50708	1349.61511	1654.41333	-689.74457	902.97943	1658.46851	-713.77252	455.05524	1664.11279	-1113.50122	2808.14404	1664.66443	-1140.77454	2356.51440	1667.94226	-1171.27173	1906.05457	1668.92468	-1199.01477	1404.30420	1669.26367	-1226.83997	952.63971	1668.40686	-1244.70520	506.46808	1667.64905	
60	0.295	-576.35541	2754.90967	1664.23584	-603.86981	2305.62524	1657.80530	-637.92004	1851.81140	1654.49829	-660.47833	1349.60095	1654.43054	-689.76605	902.96497	1658.48975	-713.78137	455.07199	1664.10938	-1113.48987	2808.15918	1664.66870	-1140.76782	2356.51318	1667.93848	-1171.26709	1906.04321	1668.92932	-1198.99365	1404.27197	1669.24573	-1226.82507	952.64124	1668.40784	-1244.70032	506.46719	1667.65149	
61	0.300	-576.36548	2754.93311	1664.23071	-603.90448	2305.63477	1657.81128	-637.87140	1851.82507	1654.49426	-660.46802	1349.60303	1654.43982	-689.78326	902.96741	1658.46143	-713.78900	455.06927	1664.11328	-1113.50073	2808.13257	1664.66406	-1140.77026	2356.50513	1667.94482	-1171.27075	1906.00439	1668.92407	-1198.99438	1404.31567	1669.25293	-1226.82568	952.64209	1668.40857	-1244.72095	506.46860	1667.64722	
62	0.305	-576.34717	2754.89526	1664.22156	-603.87329	2305.60889	1657.81409	-637.85986	1851.81995	1654.49890	-660.47919	1349.59937	1654.42395	-689.76569	902.97333	1658.44885	-713.75885	455.06067	1664.11670	-1113.52063	2808.14233	1664.64392	-1140.76306	2356.49780	1667.93237	-1171.26550	1906.03735	1668.93323	-1198.99292	1404.30017	1669.25928	-1226.84607	952.63263	1668.40649	-1244.70703	506.45334	1667.65295	
63	0.310	-576.33435	2754.88770	1664.23169	-603.89172	2305.63477	1657.81787	-637.90314	1851.83325	1654.50256	-660.48523	1349.60535	1654.42627	-689.77045	902.98285	1658.46313	-713.77576	455.05450	1664.11072	-1113.49426	2808.13599	1664.67676	-1140.77429	2356.50830	1667.95789	-1171.28125	1906.01343	1668.92981	-1198.99573	1404.28125	1669.25342	-1226.82947	952.62708	1668.41321	-1244.71240	506.47327	1667.66064	
64	0.315	-576.35077	2754.91772	1664.22803	-603.90161	2305.65015	1657.80969	-637.92834	1851.82446	1654.50830	-660.48718	1349.60254	1654.41980	-689.75580	902.99750	1658.46887	-713.77582	455.07907	1664.11841	-1113.51416	2808.14014	1664.66174	-1140.76184	2356.51660	1667.93811	-1171.27307	1906.02026	1668.91187	-1198.99854	1404.25940	1669.25537	-1226.82739	952.62219	1668.40906	-1244.69470	506.47455	1667.67419	
65	0.320	-576.35327	2754.92090	1664.24023	-603.87219	2305.63257	1657.81763	-637.89618	1851.80786	1654.50256	-660.48663	1349.60791	1654.43518	-689.77716	902.96790	1658.46533	-713.76605	455.06497	1664.12756	-1113.50378	2808.14697	1664.66833	-1140.76489	2356.53467	1667.95032	-1171.27307	1906.03125	1668.91711	-1198.99487	1404.31396	1669.26929	-1226.82776	952.62708	1668.41785	-1244.71094	506.47012	1667.64832	
